<?xml version="1.0" standalone="no"?>
<!DOCTYPE svg PUBLIC "-//W3C//DTD SVG 20010904//EN"
 "http://www.w3.org/TR/2001/REC-SVG-20010904/DTD/svg10.dtd">
<svg version="1.0" xmlns="http://www.w3.org/2000/svg"
 width="512.000000pt" height="512.000000pt" viewBox="0 0 512.000000 512.000000"
 preserveAspectRatio="xMidYMid meet">
<metadata>
Created by potrace 1.14, written by Peter Selinger 2001-2017
</metadata>
<g transform="translate(0.000000,512.000000) scale(0.100000,-0.100000)"
fill="#000000" stroke="none">
<path d="M2505 5113 c-124 -26 -262 -130 -317 -237 l-16 -30 -108 0 c-96 -1
-116 -4 -164 -27 -56 -27 -128 -89 -149 -128 -16 -30 -28 -26 -47 15 -31 65
-119 149 -196 189 -94 47 -187 61 -300 43 -96 -15 -226 -102 -287 -193 -56
-82 -76 -151 -76 -260 0 -55 3 -112 8 -127 7 -25 4 -28 -34 -38 -40 -11 -142
-70 -154 -90 -4 -6 -21 1 -43 18 -115 88 -240 110 -360 64 -148 -57 -234 -184
-235 -347 0 -68 5 -90 31 -146 30 -67 105 -153 144 -168 18 -6 16 -10 -19 -36
-89 -66 -140 -153 -149 -255 -5 -50 1 -104 26 -235 17 -93 34 -181 37 -195 2
-14 28 -153 58 -310 30 -157 57 -301 60 -320 3 -19 12 -66 20 -105 8 -38 28
-142 44 -230 17 -88 49 -257 71 -375 23 -118 44 -228 46 -245 3 -16 25 -133
49 -260 24 -126 71 -378 105 -560 33 -181 66 -343 72 -360 21 -55 52 -92 101
-126 l50 -34 1144 -3 1144 -2 49 21 c55 24 104 72 129 129 l17 37 48 -48 c96
-96 186 -132 326 -133 98 -1 150 12 224 53 l36 20 47 -20 c107 -46 235 -32
339 36 50 33 53 33 69 16 25 -29 124 -77 184 -91 259 -60 514 107 559 366 17
101 4 192 -43 289 -72 151 -220 250 -399 267 -26 3 -30 9 -42 55 -7 28 -27 74
-45 102 -28 46 -31 60 -31 129 0 49 -6 94 -17 123 l-18 46 44 23 c152 81 222
297 148 459 -100 218 -352 290 -546 156 l-38 -27 -33 25 c-115 86 -294 118
-414 75 l-41 -15 14 76 c28 155 154 821 180 951 35 177 35 267 1 342 -31 68
-98 142 -151 170 l-39 19 44 28 c81 53 130 113 160 199 56 158 -10 343 -151
431 -81 49 -165 64 -272 46 -35 -6 -37 -5 -67 47 -54 92 -130 158 -228 196
l-47 19 -3 56 c-10 192 -133 357 -314 422 -43 16 -193 27 -235 18z"/>
</g>
</svg>
